<svg xmlns="http://www.w3.org/2000/svg" width="41.574" height="53.171" viewBox="0 0 41.574 53.171"><path d="M282.581,326.736a14.808,14.808,0,0,0-5.616-11.879c-3.6-2.831-8.576-4.267-14.793-4.267H244.917a2.369,2.369,0,0,0-1.242.322,3.093,3.093,0,0,0-1.482,2.071,2.935,2.935,0,0,0,.547,2.323l18.641,24.579H243.953a2.943,2.943,0,0,0-2.939,2.939v18.37a2.57,2.57,0,0,0,2.567,2.567H278.32a2.363,2.363,0,0,0,1.241-.321,3.093,3.093,0,0,0,1.484-2.07,2.938,2.938,0,0,0-.547-2.324L268.324,343a19.786,19.786,0,0,0,8.64-3.725,14.806,14.806,0,0,0,5.616-11.879c0-.048.007-.1.007-.147v-.362C282.588,326.833,282.585,326.784,282.581,326.736Zm-37.915,20.373,9.4,13h-9.029a.367.367,0,0,1-.367-.366Zm13.9,13-11.976-16.571h15.579c.659,0,1.31-.017,1.942-.049l12.6,16.619Zm7.245-20.423-19.3-25.443h15.655c5.378,0,9.6,1.172,12.534,3.484,2.808,2.21,4.191,5.267,4.227,9.327-.036,4.08-1.419,7.137-4.227,9.346A17.388,17.388,0,0,1,265.814,339.686Z" transform="translate(-241.014 -310.59)" fill="#4f7ef3"/></svg>