<svg xmlns="http://www.w3.org/2000/svg" width="207.47" height="24.905" viewBox="0 0 207.47 24.905">
  <g id="Group_42" data-name="Group 42" transform="translate(-856.442 -3168.333)">
    <g id="Group_41" data-name="Group 41" transform="translate(615.428 2857.743)">
      <path id="Path_3" data-name="Path 3" d="M260.483,318.152a6.936,6.936,0,0,0-2.631-5.564,10.971,10.971,0,0,0-6.929-2h-8.082a1.109,1.109,0,0,0-.582.151,1.449,1.449,0,0,0-.694.97,1.375,1.375,0,0,0,.256,1.088l8.731,11.513h-8.163a1.378,1.378,0,0,0-1.377,1.377v8.6a1.2,1.2,0,0,0,1.2,1.2h16.271a1.107,1.107,0,0,0,.581-.151,1.449,1.449,0,0,0,.7-.969,1.376,1.376,0,0,0-.256-1.089l-5.7-7.518a9.268,9.268,0,0,0,4.047-1.745,6.935,6.935,0,0,0,2.631-5.564c0-.023,0-.046,0-.069v-.17C260.486,318.2,260.485,318.175,260.483,318.152Zm-17.759,9.542,4.4,6.089H242.9a.172.172,0,0,1-.172-.172Zm6.512,6.089-5.609-7.761h7.3c.309,0,.614-.008.91-.023l5.9,7.784Zm3.394-9.566L243.592,312.3h7.332a9.338,9.338,0,0,1,5.871,1.632,5.819,5.819,0,0,1,0,8.746A8.144,8.144,0,0,1,252.63,324.218Z" transform="translate(0 0)" fill="#4f7ef3"/>
      <g id="Group_1" data-name="Group 1" transform="translate(270.349 317.254)">
        <path id="Path_4" data-name="Path 4" d="M414.837,353.711h5.241c2.663,0,4.607,1.247,4.607,4.4a4.047,4.047,0,0,1-2.367,3.973l2.473,6.425h-3.149l-2.156-5.854h-1.627V368.5h-3.022Zm4.988,6.573c1.352,0,1.923-.676,1.923-2.092,0-1.395-.549-2.05-1.839-2.05h-2.05v4.142Z" transform="translate(-414.837 -353.098)" fill="#152241"/>
        <path id="Path_5" data-name="Path 5" d="M477.955,380c0-3.7,2.261-5.749,5.178-5.749,3.107,0,4.966,2.134,4.966,5.918a7.53,7.53,0,0,1-.021.782h-7.186a2.411,2.411,0,0,0,2.494,2.409,6.143,6.143,0,0,0,3.043-.824l1.1,2.113a8.093,8.093,0,0,1-4.332,1.162C480.174,385.808,477.955,383.737,477.955,380Zm7.376-1.036c-.148-1.48-.719-2.367-2.261-2.367-1.268,0-2.008.867-2.177,2.367Z" transform="translate(-467.303 -370.169)" fill="#152241"/>
        <path id="Path_6" data-name="Path 6" d="M548.462,374.48h2.494v.761a2.241,2.241,0,0,1,1.9-.993,2.156,2.156,0,0,1,2.008,1.015,2.8,2.8,0,0,1,2.219-1.015c1.5,0,2.388.93,2.388,3.149v8.179h-2.494v-7.651c0-.93-.3-1.332-.824-1.332s-.951.4-.951,1.332v7.651h-2.473v-7.651c0-.93-.317-1.332-.845-1.332s-.93.4-.93,1.332v7.651h-2.494Z" transform="translate(-525.911 -370.169)" fill="#152241"/>
        <path id="Path_7" data-name="Path 7" d="M622.725,380.018c0-3.846,2.3-5.77,5.2-5.77s5.2,1.923,5.2,5.749c0,3.8-2.325,5.812-5.22,5.812S622.725,383.822,622.725,380.018Zm7.354,0c0-2.261-.824-3.276-2.156-3.276s-2.156,1.014-2.156,3.276c0,2.219.824,3.3,2.156,3.3S630.079,382.237,630.079,380.018Z" transform="translate(-587.641 -370.169)" fill="#152241"/>
        <path id="Path_8" data-name="Path 8" d="M691.212,362.252v-5.368h-2.24V354.39h2.24v-3.022l2.959-1.289v4.311h3.3v2.494h-3.3v4.861c0,1.057.444,1.395,1.247,1.395a3.76,3.76,0,0,0,2.008-.613l-.486,2.578a5.3,5.3,0,0,1-2.642.613C692.29,365.718,691.212,364.556,691.212,362.252Z" transform="translate(-642.708 -350.079)" fill="#152241"/>
        <path id="Path_9" data-name="Path 9" d="M745.954,380c0-3.7,2.261-5.749,5.178-5.749,3.107,0,4.966,2.134,4.966,5.918a7.541,7.541,0,0,1-.021.782h-7.186a2.411,2.411,0,0,0,2.494,2.409,6.143,6.143,0,0,0,3.043-.824l1.1,2.113a8.093,8.093,0,0,1-4.333,1.162C748.173,385.808,745.954,383.737,745.954,380Zm7.376-1.036c-.148-1.48-.719-2.367-2.261-2.367-1.268,0-2.008.867-2.177,2.367Z" transform="translate(-690.074 -370.169)" fill="#152241"/>
        <path id="Path_10" data-name="Path 10" d="M818.087,353.711h5.241c2.663,0,4.607,1.247,4.607,4.4a4.047,4.047,0,0,1-2.367,3.973l2.473,6.425h-3.149l-2.156-5.854h-1.627V368.5h-3.022Zm4.988,6.573c1.353,0,1.923-.676,1.923-2.092,0-1.395-.55-2.05-1.839-2.05h-2.05v4.142Z" transform="translate(-750.033 -353.098)" fill="#152241"/>
        <path id="Path_11" data-name="Path 11" d="M883.96,382.068c0-2.409,1.86-3.572,4.206-3.572a5.563,5.563,0,0,1,2.515.528v-.782c0-1.226-.655-1.733-1.923-1.733a6.16,6.16,0,0,0-3.128.8l-.867-2.113a9.731,9.731,0,0,1,4.5-.951c2.937,0,4.417,1.416,4.417,4.016v7.312h-3V384.6a4.658,4.658,0,0,1-3.022,1.2A3.429,3.429,0,0,1,883.96,382.068Zm6.721.528v-1.67a4.371,4.371,0,0,0-2.113-.444c-1.1,0-1.712.571-1.712,1.522a1.421,1.421,0,0,0,1.585,1.564A3.081,3.081,0,0,0,890.681,382.6Z" transform="translate(-804.789 -370.169)" fill="#152241"/>
        <path id="Path_12" data-name="Path 12" d="M951.7,362.252v-5.368h-2.24V354.39h2.24v-3.022l2.959-1.289v4.311h3.3v2.494h-3.3v4.861c0,1.057.444,1.395,1.247,1.395a3.76,3.76,0,0,0,2.008-.613l-.486,2.578a5.3,5.3,0,0,1-2.642.613C952.774,365.718,951.7,364.556,951.7,362.252Z" transform="translate(-859.232 -350.079)" fill="#152241"/>
        <path id="Path_13" data-name="Path 13" d="M1008.943,380c0-3.7,2.261-5.749,5.178-5.749,3.107,0,4.966,2.134,4.966,5.918a7.519,7.519,0,0,1-.021.782h-7.186a2.411,2.411,0,0,0,2.494,2.409,6.143,6.143,0,0,0,3.043-.824l1.1,2.113a8.093,8.093,0,0,1-4.332,1.162C1011.162,385.808,1008.943,383.737,1008.943,380Zm7.376-1.036c-.148-1.48-.718-2.367-2.261-2.367-1.268,0-2.008.867-2.177,2.367Z" transform="translate(-908.68 -370.169)" fill="#152241"/>
        <path id="Path_14" data-name="Path 14" d="M1078.822,360.012c0-3.952,1.67-5.854,4.037-5.854a3.887,3.887,0,0,1,2.747,1.141v-3.931l3-1.289v15.407h-3v-1.014a4.012,4.012,0,0,1-2.9,1.247C1080.6,365.718,1078.822,364.07,1078.822,360.012Zm6.784,2.261v-4.649a2.511,2.511,0,0,0-1.965-.93c-1.162,0-1.775.867-1.775,3.234,0,2.515.655,3.255,1.818,3.255A2.571,2.571,0,0,0,1085.606,362.273Z" transform="translate(-966.766 -350.077)" fill="#152241"/>
      </g>
    </g>
    <path id="Path_170" data-name="Path 170" d="M.72,0H2.568A1.515,1.515,0,0,0,4.3-1.664a1.31,1.31,0,0,0-.912-1.352A1.158,1.158,0,0,0,4.12-4.168,1.339,1.339,0,0,0,2.592-5.6H.72Zm.84-3.32V-4.88h.976a.669.669,0,0,1,.744.76.708.708,0,0,1-.768.8Zm0,2.6v-1.9h.976a.853.853,0,0,1,.92.968c0,.608-.256.928-.88.928ZM7.176,0h.856V-2.248L9.616-5.6H8.728l-.6,1.336c-.2.472-.392.992-.512,1.352-.112-.352-.3-.864-.5-1.352L6.512-5.6H5.576l1.6,3.368ZM18,.088l.776-2.656c.16-.536.264-.936.344-1.312-.016.328-.016.824-.016,1.248V0h.72V-5.6h-.8l-.68,2.4c-.16.576-.264.992-.336,1.392A13.488,13.488,0,0,0,17.672-3.2l-.688-2.4h-.808V0H16.9V-2.632c0-.44-.008-.92-.016-1.248a12.257,12.257,0,0,0,.336,1.312ZM21.576,0h3.48V-.76H22.432V-2.584h1.552v-.76H22.432v-1.5H24.96V-5.6H21.576ZM26.7,0h.864V-2.344h.848L29.336,0h.92L29.248-2.5a1.475,1.475,0,0,0,1-1.5,1.483,1.483,0,0,0-1.656-1.6H26.7Zm.864-3.056V-4.872h.984c.584,0,.864.3.864.9,0,.624-.288.92-.9.92ZM32.32,0h2.552V-.68h-.848V-4.92h.848V-5.6H32.32v.68h.848V-.68H32.32Zm6.616.088a1.832,1.832,0,0,0,1.744-1.2l-.7-.376c-.28.552-.536.824-1.024.824-.736,0-1.184-.688-1.184-2.136s.44-2.136,1.168-2.136c.472,0,.712.24.976.816l.736-.344a1.7,1.7,0,0,0-1.7-1.224c-1.256,0-2.04,1.08-2.04,2.888C36.912-1.008,37.64.088,38.936.088Zm5.056,0c1.192,0,1.92-1.064,1.92-2.888,0-1.84-.72-2.888-1.912-2.888S42.088-4.624,42.088-2.8C42.088-.96,42.8.088,43.992.088Zm.016-.76c-.664,0-1.048-.632-1.048-2.128s.36-2.128,1.024-2.128S45.04-4.3,45.04-2.8,44.672-.672,44.008-.672Z" transform="translate(1018 3190)" fill="#4f7ef3"/>
  </g>
</svg>
